<svg width="500" height="500" viewBox="0 0 500 500" fill="none" xmlns="http://www.w3.org/2000/svg">
<rect width="500" height="500" rx="100" fill="white"/>
<path d="M109.24 346.738C95.2523 346.738 82.7697 343.905 71.792 338.24C60.9915 332.397 52.4926 324.34 46.2956 314.071C40.0985 303.802 37 292.204 37 279.279C37 266.354 40.01 254.845 46.03 244.753C52.2271 234.483 60.5488 226.427 70.9953 220.584C81.4417 214.741 93.2161 211.82 106.318 211.82C119.067 211.82 130.31 214.564 140.048 220.053C149.786 225.542 157.4 233.155 162.889 242.893C168.555 252.632 171.388 263.786 171.388 276.358C171.388 278.659 171.211 281.138 170.856 283.794C170.679 286.273 170.237 289.194 169.528 292.558L58.247 292.824V264.937L152.265 264.672L134.736 276.358C134.559 268.921 133.408 262.813 131.284 258.032C129.159 253.074 125.972 249.356 121.723 246.877C117.65 244.221 112.604 242.893 106.584 242.893C100.21 242.893 94.6326 244.398 89.852 247.408C85.2485 250.241 81.6188 254.314 78.9629 259.626C76.4841 264.937 75.2447 271.4 75.2447 279.013C75.2447 286.627 76.5726 293.178 79.2285 298.667C82.0614 303.979 85.9567 308.14 90.9144 311.15C96.0491 313.983 102.069 315.399 108.974 315.399C115.348 315.399 121.103 314.337 126.238 312.212C131.372 309.91 135.887 306.546 139.783 302.12L162.092 324.429C155.718 331.865 148.016 337.443 138.986 341.161C129.956 344.879 120.041 346.738 109.24 346.738Z" fill="black"/>
<path d="M273.6 343.817L228.45 276.889L273.334 214.741H318.75L264.57 284.591L265.898 267.859L321.405 343.817H273.6ZM191.002 343.817V151H231.637V343.817H191.002Z" fill="black"/>
<path d="M462 279.633C462 318.34 430.621 349.719 391.914 349.719C353.207 349.719 321.828 318.34 321.828 279.633C321.828 240.926 353.207 209.547 391.914 209.547C430.621 209.547 462 240.926 462 279.633Z" fill="#EF5F06"/>
</svg>
