<svg width="758" height="500" viewBox="0 0 758 500" fill="none" xmlns="http://www.w3.org/2000/svg">
<path d="M119.92 294.98C110.44 294.98 101.98 293.06 94.54 289.22C87.22 285.26 81.46 279.8 77.26 272.84C73.06 265.88 70.96 258.02 70.96 249.26C70.96 240.5 73 232.7 77.08 225.86C81.28 218.9 86.92 213.44 94 209.48C101.08 205.52 109.06 203.54 117.94 203.54C126.58 203.54 134.2 205.4 140.8 209.12C147.4 212.84 152.56 218 156.28 224.6C160.12 231.2 162.04 238.76 162.04 247.28C162.04 248.84 161.92 250.52 161.68 252.32C161.56 254 161.26 255.98 160.78 258.26L85.36 258.44V239.54L149.08 239.36L137.2 247.28C137.08 242.24 136.3 238.1 134.86 234.86C133.42 231.5 131.26 228.98 128.38 227.3C125.62 225.5 122.2 224.6 118.12 224.6C113.8 224.6 110.02 225.62 106.78 227.66C103.66 229.58 101.2 232.34 99.4 235.94C97.72 239.54 96.88 243.92 96.88 249.08C96.88 254.24 97.78 258.68 99.58 262.4C101.5 266 104.14 268.82 107.5 270.86C110.98 272.78 115.06 273.74 119.74 273.74C124.06 273.74 127.96 273.02 131.44 271.58C134.92 270.02 137.98 267.74 140.62 264.74L155.74 279.86C151.42 284.9 146.2 288.68 140.08 291.2C133.96 293.72 127.24 294.98 119.92 294.98Z" fill="black"/>
<path d="M231.313 293L200.713 247.64L231.133 205.52H261.913L225.193 252.86L226.093 241.52L263.713 293H231.313ZM175.333 293V162.32H202.873V293H175.333Z" fill="black"/>
<path d="M382.841 293V197.96C382.841 190.88 384.401 184.52 387.521 178.88C390.761 173.12 395.261 168.62 401.021 165.38C406.781 162.02 413.621 160.34 421.541 160.34C427.541 160.34 432.761 161.36 437.201 163.4C441.761 165.32 445.721 168.02 449.081 171.5L431.801 188.78C430.601 187.58 429.221 186.68 427.661 186.08C426.221 185.36 424.481 185 422.441 185C418.721 185 415.781 186.08 413.621 188.24C411.461 190.4 410.381 193.34 410.381 197.06V293H382.841ZM363.581 228.92V205.52H435.581V228.92H363.581Z" fill="black"/>
<path d="M489.412 294.98C479.932 294.98 471.472 293.06 464.032 289.22C456.712 285.26 450.952 279.8 446.752 272.84C442.552 265.88 440.452 258.02 440.452 249.26C440.452 240.5 442.492 232.7 446.572 225.86C450.772 218.9 456.412 213.44 463.492 209.48C470.572 205.52 478.552 203.54 487.432 203.54C496.072 203.54 503.692 205.4 510.292 209.12C516.892 212.84 522.052 218 525.772 224.6C529.612 231.2 531.532 238.76 531.532 247.28C531.532 248.84 531.412 250.52 531.172 252.32C531.052 254 530.752 255.98 530.272 258.26L454.852 258.44V239.54L518.572 239.36L506.692 247.28C506.572 242.24 505.792 238.1 504.352 234.86C502.912 231.5 500.752 228.98 497.872 227.3C495.112 225.5 491.692 224.6 487.612 224.6C483.292 224.6 479.512 225.62 476.272 227.66C473.152 229.58 470.692 232.34 468.892 235.94C467.212 239.54 466.372 243.92 466.372 249.08C466.372 254.24 467.272 258.68 469.072 262.4C470.992 266 473.632 268.82 476.992 270.86C480.472 272.78 484.552 273.74 489.232 273.74C493.552 273.74 497.452 273.02 500.932 271.58C504.412 270.02 507.472 267.74 510.112 264.74L525.232 279.86C520.912 284.9 515.692 288.68 509.572 291.2C503.452 293.72 496.732 294.98 489.412 294.98Z" fill="black"/>
<path d="M576.685 295.16C571.525 295.16 566.425 294.5 561.385 293.18C556.465 291.86 551.845 290 547.525 287.6C543.325 285.08 539.725 282.2 536.725 278.96L552.385 263.12C555.265 266.24 558.685 268.7 562.645 270.5C566.605 272.18 570.925 273.02 575.605 273.02C578.845 273.02 581.305 272.54 582.985 271.58C584.785 270.62 585.685 269.3 585.685 267.62C585.685 265.46 584.605 263.84 582.445 262.76C580.405 261.56 577.765 260.54 574.525 259.7C571.285 258.74 567.865 257.72 564.265 256.64C560.665 255.56 557.245 254.06 554.005 252.14C550.765 250.22 548.125 247.58 546.085 244.22C544.045 240.74 543.025 236.36 543.025 231.08C543.025 225.44 544.465 220.58 547.345 216.5C550.225 212.3 554.305 209 559.585 206.6C564.865 204.2 571.045 203 578.125 203C585.565 203 592.405 204.32 598.645 206.96C605.005 209.48 610.165 213.26 614.125 218.3L598.465 234.14C595.705 230.9 592.585 228.62 589.105 227.3C585.745 225.98 582.445 225.32 579.205 225.32C576.085 225.32 573.745 225.8 572.185 226.76C570.625 227.6 569.845 228.86 569.845 230.54C569.845 232.34 570.865 233.78 572.905 234.86C574.945 235.94 577.585 236.9 580.825 237.74C584.065 238.58 587.485 239.6 591.085 240.8C594.685 242 598.105 243.62 601.345 245.66C604.585 247.7 607.225 250.46 609.265 253.94C611.305 257.3 612.325 261.74 612.325 267.26C612.325 275.78 609.085 282.56 602.605 287.6C596.245 292.64 587.605 295.16 576.685 295.16Z" fill="black"/>
<path d="M639.687 293V169.34H667.227V293H639.687ZM619.887 228.92V205.52H687.027V228.92H619.887Z" fill="black"/>
<path d="M359 249.5C359 275.733 337.733 297 311.5 297C285.267 297 264 275.733 264 249.5C264 223.267 285.267 202 311.5 202C337.733 202 359 223.267 359 249.5Z" fill="#EF5F06"/>
</svg>
