<svg width="582" height="130" viewBox="0 0 582 130" fill="none" xmlns="http://www.w3.org/2000/svg">
<path d="M46.2327 127.14C37.2808 127.14 29.292 125.327 22.2665 121.701C15.3542 117.961 9.9151 112.805 5.94906 106.233C1.98302 99.6609 0 92.2387 0 83.9667C0 75.6947 1.92636 68.3292 5.77908 61.8702C9.74512 55.2979 15.0709 50.1421 21.7566 46.4027C28.4422 42.6632 35.9776 40.7935 44.363 40.7935C52.5217 40.7935 59.7172 42.5499 65.9496 46.0627C72.1819 49.5755 77.0545 54.448 80.5673 60.6804C84.1933 66.9127 86.0064 74.0516 86.0064 82.097C86.0064 83.5701 85.8931 85.1565 85.6664 86.8562C85.5531 88.4427 85.2698 90.3124 84.8166 92.4654L13.5978 92.6353V74.7882L73.7683 74.6182L62.5501 82.097C62.4368 77.3378 61.7002 73.4284 60.3404 70.3689C58.9807 67.196 56.941 64.8164 54.2214 63.23C51.6152 61.5303 48.3857 60.6804 44.5329 60.6804C40.4536 60.6804 36.8842 61.6436 33.8246 63.5699C30.8784 65.383 28.5555 67.9892 26.8557 71.3887C25.2693 74.7882 24.4761 78.9242 24.4761 83.7967C24.4761 88.6693 25.326 92.862 27.0257 96.3747C28.8388 99.7742 31.3317 102.437 34.5045 104.363C37.7907 106.177 41.6434 107.083 46.0627 107.083C50.1421 107.083 53.8248 106.403 57.111 105.043C60.3971 103.57 63.2867 101.417 65.7796 98.5844L80.0573 112.862C75.978 117.621 71.0488 121.191 65.2697 123.57C59.4906 125.95 53.1449 127.14 46.2327 127.14Z" fill="black"/>
<path d="M151.421 125.27L122.525 82.437L151.251 42.6632H180.316L145.642 87.3662L146.492 76.6579L182.016 125.27H151.421ZM98.5592 125.27V1.86971H124.565V125.27H98.5592Z" fill="black"/>
<path d="M294.508 125.27V35.5244C294.508 28.8388 295.981 22.8331 298.927 17.5072C301.986 12.0681 306.236 7.81876 311.675 4.75925C317.114 1.58642 323.573 0 331.052 0C336.718 0 341.647 0.963182 345.839 2.88955C350.145 4.70259 353.885 7.25219 357.058 10.5383L340.74 26.8557C339.607 25.7226 338.304 24.8727 336.831 24.3062C335.471 23.6263 333.828 23.2863 331.902 23.2863C328.389 23.2863 325.613 24.3062 323.573 26.3458C321.533 28.3855 320.513 31.1617 320.513 34.6745V125.27H294.508ZM276.32 64.7598V42.6632H344.31V64.7598H276.32Z" fill="black"/>
<path d="M395.142 127.14C386.19 127.14 378.202 125.327 371.176 121.701C364.264 117.961 358.825 112.805 354.859 106.233C350.893 99.6609 348.91 92.2387 348.91 83.9667C348.91 75.6947 350.836 68.3292 354.689 61.8702C358.655 55.2979 363.981 50.1421 370.666 46.4027C377.352 42.6632 384.887 40.7935 393.273 40.7935C401.431 40.7935 408.627 42.5499 414.859 46.0627C421.092 49.5755 425.964 54.448 429.477 60.6804C433.103 66.9127 434.916 74.0516 434.916 82.097C434.916 83.5701 434.803 85.1565 434.576 86.8562C434.463 88.4427 434.179 90.3124 433.726 92.4654L362.507 92.6353V74.7882L422.678 74.6182L411.46 82.097C411.346 77.3378 410.61 73.4284 409.25 70.3689C407.89 67.196 405.851 64.8164 403.131 63.23C400.525 61.5303 397.295 60.6804 393.443 60.6804C389.363 60.6804 385.794 61.6436 382.734 63.5699C379.788 65.383 377.465 67.9892 375.765 71.3887C374.179 74.7882 373.386 78.9242 373.386 83.7967C373.386 88.6693 374.236 92.862 375.935 96.3747C377.748 99.7742 380.241 102.437 383.414 104.363C386.7 106.177 390.553 107.083 394.972 107.083C399.052 107.083 402.734 106.403 406.021 105.043C409.307 103.57 412.196 101.417 414.689 98.5844L428.967 112.862C424.888 117.621 419.958 121.191 414.179 123.57C408.4 125.95 402.055 127.14 395.142 127.14Z" fill="black"/>
<path d="M477.554 127.31C472.681 127.31 467.866 126.687 463.106 125.44C458.46 124.194 454.098 122.437 450.018 120.171C446.052 117.791 442.653 115.072 439.82 112.012L454.608 97.0546C457.327 100.001 460.557 102.324 464.296 104.024C468.036 105.61 472.115 106.403 476.534 106.403C479.594 106.403 481.917 105.95 483.503 105.043C485.203 104.137 486.053 102.89 486.053 101.304C486.053 99.2643 485.033 97.7345 482.993 96.7147C481.067 95.5815 478.574 94.6184 475.514 93.8251C472.455 92.9186 469.225 91.9554 465.826 90.9356C462.426 89.9158 459.197 88.4993 456.137 86.6863C453.078 84.8732 450.585 82.3803 448.659 79.2075C446.732 75.9213 445.769 71.7853 445.769 66.7994C445.769 61.4736 447.129 56.8843 449.848 53.0316C452.568 49.0656 456.421 45.9494 461.407 43.6831C466.392 41.4168 472.228 40.2836 478.914 40.2836C485.939 40.2836 492.398 41.5301 498.291 44.023C504.296 46.4027 509.169 49.9721 512.908 54.7313L498.121 69.689C495.515 66.6295 492.568 64.4765 489.282 63.23C486.109 61.9835 482.993 61.3603 479.934 61.3603C476.987 61.3603 474.778 61.8135 473.305 62.7201C471.832 63.5133 471.095 64.7031 471.095 66.2895C471.095 67.9892 472.058 69.349 473.985 70.3689C475.911 71.3887 478.404 72.2952 481.463 73.0884C484.523 73.8816 487.752 74.8448 491.152 75.978C494.551 77.1111 497.781 78.6409 500.84 80.5672C503.9 82.4936 506.393 85.0999 508.319 88.386C510.245 91.5588 511.209 95.7515 511.209 100.964C511.209 109.009 508.149 115.412 502.03 120.171C496.024 124.93 487.866 127.31 477.554 127.31Z" fill="black"/>
<path d="M537.046 125.27V8.49866H563.052V125.27H537.046ZM518.349 64.7598V42.6632H581.749V64.7598H518.349Z" fill="black"/>
<path d="M271.995 84.1933C271.995 108.965 251.913 129.047 227.141 129.047C202.369 129.047 182.287 108.965 182.287 84.1933C182.287 59.4213 202.369 39.3393 227.141 39.3393C251.913 39.3393 271.995 59.4213 271.995 84.1933Z" fill="#EF5F06"/>
</svg>
