<?xml version="1.0" encoding="iso-8859-1"?>
<!-- Uploaded to: SVG Repo, www.svgrepo.com, Generator: SVG Repo Mixer Tools -->
<svg height="800px" width="800px" version="1.1" id="Layer_1" xmlns="http://www.w3.org/2000/svg" xmlns:xlink="http://www.w3.org/1999/xlink" 
	 viewBox="0 0 512 512" xml:space="preserve">
<polygon style="fill:#FFE164;" points="422.493,196.596 415.736,180.285 272.314,239.692 331.723,96.267 315.412,89.511 
	256.004,232.932 196.596,89.507 180.285,96.264 239.697,239.697 96.264,180.285 89.507,196.596 232.932,256.004 89.511,315.412 
	96.267,331.723 239.692,272.314 180.285,415.736 196.596,422.493 256.004,279.068 315.412,422.488 331.723,415.733 272.32,272.319 
	415.733,331.723 422.489,315.412 279.068,256.004 "/>
<polygon style="fill:#FFF578;" points="465.514,223.33 462.07,206.014 297.784,238.692 437.058,145.632 427.25,130.952 
	288.012,223.988 381.048,84.75 366.368,74.942 273.308,214.216 305.986,49.93 288.67,46.485 256,210.729 223.33,46.485 
	206.014,49.93 238.692,214.216 145.632,74.942 130.952,84.75 223.988,223.988 84.75,130.952 74.942,145.632 214.216,238.692 
	49.93,206.014 46.486,223.33 210.752,256.004 46.487,288.679 49.931,305.994 214.175,273.324 74.936,366.36 84.745,381.041 
	224.021,287.979 130.959,427.255 145.639,437.064 238.676,297.825 206.005,462.068 223.321,465.513 256,301.227 288.679,465.513 
	305.995,462.068 273.324,297.825 366.361,437.064 381.041,427.255 287.979,287.979 427.255,381.041 437.064,366.36 297.825,273.324 
	462.068,305.994 465.513,288.679 301.248,256.004 "/>
<g>
	<circle style="fill:#FFE632;" cx="212.943" cy="39.551" r="17.655"/>
	<circle style="fill:#FFE632;" cx="299.057" cy="472.452" r="17.655"/>
	<circle style="fill:#FFE632;" cx="472.452" cy="212.943" r="17.655"/>
	<circle style="fill:#FFE632;" cx="39.551" cy="299.057" r="17.655"/>
	<circle style="fill:#FFE632;" cx="72.508" cy="133.396" r="17.655"/>
	<circle style="fill:#FFE632;" cx="439.492" cy="378.604" r="17.655"/>
	<circle style="fill:#FFE632;" cx="378.604" cy="72.508" r="17.655"/>
	<circle style="fill:#FFE632;" cx="133.396" cy="439.492" r="17.655"/>
	<circle style="fill:#FFE632;" cx="299.057" cy="39.551" r="17.655"/>
	<circle style="fill:#FFE632;" cx="212.943" cy="472.452" r="17.655"/>
	<circle style="fill:#FFE632;" cx="39.551" cy="212.943" r="17.655"/>
	<circle style="fill:#FFE632;" cx="472.452" cy="299.057" r="17.655"/>
	<circle style="fill:#FFE632;" cx="439.492" cy="133.396" r="17.655"/>
	<circle style="fill:#FFE632;" cx="72.508" cy="378.604" r="17.655"/>
	<circle style="fill:#FFE632;" cx="133.396" cy="72.508" r="17.655"/>
	<circle style="fill:#FFE632;" cx="378.604" cy="439.492" r="17.655"/>
</g>
<g>
	<circle style="fill:#FFDC2D;" cx="185.059" cy="84.734" r="17.655"/>
	<circle style="fill:#FFDC2D;" cx="326.941" cy="427.266" r="17.655"/>
	<circle style="fill:#FFDC2D;" cx="427.266" cy="185.059" r="17.655"/>
	<circle style="fill:#FFDC2D;" cx="84.734" cy="326.941" r="17.655"/>
	<circle style="fill:#FFDC2D;" cx="326.941" cy="84.734" r="17.655"/>
	<circle style="fill:#FFDC2D;" cx="185.059" cy="427.266" r="17.655"/>
	<circle style="fill:#FFDC2D;" cx="427.266" cy="326.941" r="17.655"/>
	<circle style="fill:#FFDC2D;" cx="84.734" cy="185.059" r="17.655"/>
</g>
<polygon style="fill:#FFF064;" points="485.517,247.177 277.313,247.177 424.538,99.951 412.054,87.468 264.832,234.69 
	264.832,26.483 247.177,26.483 247.177,234.699 99.946,87.468 87.462,99.951 234.687,247.177 26.483,247.177 26.483,264.832 
	234.689,264.832 87.468,412.054 99.953,424.538 247.177,277.313 247.177,485.517 264.832,485.517 264.832,277.322 412.047,424.538 
	424.532,412.054 277.31,264.832 485.517,264.832 "/>
<g>
	<circle style="fill:#FFDC2D;" cx="256" cy="17.655" r="17.655"/>
	<circle style="fill:#FFDC2D;" cx="256" cy="494.345" r="17.655"/>
	<circle style="fill:#FFDC2D;" cx="494.345" cy="256" r="17.655"/>
	<circle style="fill:#FFDC2D;" cx="17.655" cy="256" r="17.655"/>
	<circle style="fill:#FFDC2D;" cx="424.541" cy="87.47" r="17.655"/>
	<circle style="fill:#FFDC2D;" cx="87.47" cy="424.541" r="17.655"/>
	<circle style="fill:#FFDC2D;" cx="424.541" cy="424.541" r="17.655"/>
	<circle style="fill:#FFDC2D;" cx="87.47" cy="87.47" r="17.655"/>
</g>
<circle style="fill:#FFB446;" cx="256" cy="256" r="13.241"/>
</svg>